<?xml version="1.0" encoding="utf-8" standalone="no"?>
<!DOCTYPE svg PUBLIC "-//W3C//DTD SVG 1.1//EN"
  "http://www.w3.org/Graphics/SVG/1.1/DTD/svg11.dtd">
<!-- Created with matplotlib (http://matplotlib.org/) -->
<svg height="352.8pt" version="1.1" viewBox="0 0 360 352.8" width="360pt" xmlns="http://www.w3.org/2000/svg" xmlns:xlink="http://www.w3.org/1999/xlink">
 <defs>
  <style type="text/css">
*{stroke-linecap:butt;stroke-linejoin:round;}
  </style>
 </defs>
 <g id="figure_1">
  <g id="patch_1">
   <path d="M 0 352.8 
L 360 352.8 
L 360 0 
L 0 0 
z
" style="fill:#ffffff;"/>
  </g>
  <g id="axes_1">
   <g id="patch_2">
    <path d="M 45 313.992 
L 324 313.992 
L 324 42.336 
L 45 42.336 
z
" style="fill:#ffffff;"/>
   </g>
   <g id="matplotlib.axis_1">
    <g id="xtick_1">
     <g id="line2d_1">
      <defs>
       <path d="M 0 0 
L 0 3.5 
" id="m8a3c9e9eed" style="stroke:#000000;stroke-width:0.8;"/>
      </defs>
      <g>
       <use style="stroke:#000000;stroke-width:0.8;" x="57.681818" xlink:href="#m8a3c9e9eed" y="313.992"/>
      </g>
     </g>
     <g id="text_1">
      <!-- 0.0 -->
      <defs>
       <path d="M 31.78125 66.40625 
Q 24.171875 66.40625 20.328125 58.90625 
Q 16.5 51.421875 16.5 36.375 
Q 16.5 21.390625 20.328125 13.890625 
Q 24.171875 6.390625 31.78125 6.390625 
Q 39.453125 6.390625 43.28125 13.890625 
Q 47.125 21.390625 47.125 36.375 
Q 47.125 51.421875 43.28125 58.90625 
Q 39.453125 66.40625 31.78125 66.40625 
z
M 31.78125 74.21875 
Q 44.046875 74.21875 50.515625 64.515625 
Q 56.984375 54.828125 56.984375 36.375 
Q 56.984375 17.96875 50.515625 8.265625 
Q 44.046875 -1.421875 31.78125 -1.421875 
Q 19.53125 -1.421875 13.0625 8.265625 
Q 6.59375 17.96875 6.59375 36.375 
Q 6.59375 54.828125 13.0625 64.515625 
Q 19.53125 74.21875 31.78125 74.21875 
z
" id="DejaVuSans-30"/>
       <path d="M 10.6875 12.40625 
L 21 12.40625 
L 21 0 
L 10.6875 0 
z
" id="DejaVuSans-2e"/>
      </defs>
      <g transform="translate(52.115724 326.310906)scale(0.07 -0.07)">
       <use xlink:href="#DejaVuSans-30"/>
       <use x="63.623047" xlink:href="#DejaVuSans-2e"/>
       <use x="95.410156" xlink:href="#DejaVuSans-30"/>
      </g>
     </g>
    </g>
    <g id="xtick_2">
     <g id="line2d_2">
      <g>
       <use style="stroke:#000000;stroke-width:0.8;" x="108.409091" xlink:href="#m8a3c9e9eed" y="313.992"/>
      </g>
     </g>
     <g id="text_2">
      <!-- 0.2 -->
      <defs>
       <path d="M 19.1875 8.296875 
L 53.609375 8.296875 
L 53.609375 0 
L 7.328125 0 
L 7.328125 8.296875 
Q 12.9375 14.109375 22.625 23.890625 
Q 32.328125 33.6875 34.8125 36.53125 
Q 39.546875 41.84375 41.421875 45.53125 
Q 43.3125 49.21875 43.3125 52.78125 
Q 43.3125 58.59375 39.234375 62.25 
Q 35.15625 65.921875 28.609375 65.921875 
Q 23.96875 65.921875 18.8125 64.3125 
Q 13.671875 62.703125 7.8125 59.421875 
L 7.8125 69.390625 
Q 13.765625 71.78125 18.9375 73 
Q 24.125 74.21875 28.421875 74.21875 
Q 39.75 74.21875 46.484375 68.546875 
Q 53.21875 62.890625 53.21875 53.421875 
Q 53.21875 48.921875 51.53125 44.890625 
Q 49.859375 40.875 45.40625 35.40625 
Q 44.1875 33.984375 37.640625 27.21875 
Q 31.109375 20.453125 19.1875 8.296875 
z
" id="DejaVuSans-32"/>
      </defs>
      <g transform="translate(102.842997 326.310906)scale(0.07 -0.07)">
       <use xlink:href="#DejaVuSans-30"/>
       <use x="63.623047" xlink:href="#DejaVuSans-2e"/>
       <use x="95.410156" xlink:href="#DejaVuSans-32"/>
      </g>
     </g>
    </g>
    <g id="xtick_3">
     <g id="line2d_3">
      <g>
       <use style="stroke:#000000;stroke-width:0.8;" x="159.136364" xlink:href="#m8a3c9e9eed" y="313.992"/>
      </g>
     </g>
     <g id="text_3">
      <!-- 0.4 -->
      <defs>
       <path d="M 37.796875 64.3125 
L 12.890625 25.390625 
L 37.796875 25.390625 
z
M 35.203125 72.90625 
L 47.609375 72.90625 
L 47.609375 25.390625 
L 58.015625 25.390625 
L 58.015625 17.1875 
L 47.609375 17.1875 
L 47.609375 0 
L 37.796875 0 
L 37.796875 17.1875 
L 4.890625 17.1875 
L 4.890625 26.703125 
z
" id="DejaVuSans-34"/>
      </defs>
      <g transform="translate(153.57027 326.310906)scale(0.07 -0.07)">
       <use xlink:href="#DejaVuSans-30"/>
       <use x="63.623047" xlink:href="#DejaVuSans-2e"/>
       <use x="95.410156" xlink:href="#DejaVuSans-34"/>
      </g>
     </g>
    </g>
    <g id="xtick_4">
     <g id="line2d_4">
      <g>
       <use style="stroke:#000000;stroke-width:0.8;" x="209.863636" xlink:href="#m8a3c9e9eed" y="313.992"/>
      </g>
     </g>
     <g id="text_4">
      <!-- 0.6 -->
      <defs>
       <path d="M 33.015625 40.375 
Q 26.375 40.375 22.484375 35.828125 
Q 18.609375 31.296875 18.609375 23.390625 
Q 18.609375 15.53125 22.484375 10.953125 
Q 26.375 6.390625 33.015625 6.390625 
Q 39.65625 6.390625 43.53125 10.953125 
Q 47.40625 15.53125 47.40625 23.390625 
Q 47.40625 31.296875 43.53125 35.828125 
Q 39.65625 40.375 33.015625 40.375 
z
M 52.59375 71.296875 
L 52.59375 62.3125 
Q 48.875 64.0625 45.09375 64.984375 
Q 41.3125 65.921875 37.59375 65.921875 
Q 27.828125 65.921875 22.671875 59.328125 
Q 17.53125 52.734375 16.796875 39.40625 
Q 19.671875 43.65625 24.015625 45.921875 
Q 28.375 48.1875 33.59375 48.1875 
Q 44.578125 48.1875 50.953125 41.515625 
Q 57.328125 34.859375 57.328125 23.390625 
Q 57.328125 12.15625 50.6875 5.359375 
Q 44.046875 -1.421875 33.015625 -1.421875 
Q 20.359375 -1.421875 13.671875 8.265625 
Q 6.984375 17.96875 6.984375 36.375 
Q 6.984375 53.65625 15.1875 63.9375 
Q 23.390625 74.21875 37.203125 74.21875 
Q 40.921875 74.21875 44.703125 73.484375 
Q 48.484375 72.75 52.59375 71.296875 
z
" id="DejaVuSans-36"/>
      </defs>
      <g transform="translate(204.297543 326.310906)scale(0.07 -0.07)">
       <use xlink:href="#DejaVuSans-30"/>
       <use x="63.623047" xlink:href="#DejaVuSans-2e"/>
       <use x="95.410156" xlink:href="#DejaVuSans-36"/>
      </g>
     </g>
    </g>
    <g id="xtick_5">
     <g id="line2d_5">
      <g>
       <use style="stroke:#000000;stroke-width:0.8;" x="260.590909" xlink:href="#m8a3c9e9eed" y="313.992"/>
      </g>
     </g>
     <g id="text_5">
      <!-- 0.8 -->
      <defs>
       <path d="M 31.78125 34.625 
Q 24.75 34.625 20.71875 30.859375 
Q 16.703125 27.09375 16.703125 20.515625 
Q 16.703125 13.921875 20.71875 10.15625 
Q 24.75 6.390625 31.78125 6.390625 
Q 38.8125 6.390625 42.859375 10.171875 
Q 46.921875 13.96875 46.921875 20.515625 
Q 46.921875 27.09375 42.890625 30.859375 
Q 38.875 34.625 31.78125 34.625 
z
M 21.921875 38.8125 
Q 15.578125 40.375 12.03125 44.71875 
Q 8.5 49.078125 8.5 55.328125 
Q 8.5 64.0625 14.71875 69.140625 
Q 20.953125 74.21875 31.78125 74.21875 
Q 42.671875 74.21875 48.875 69.140625 
Q 55.078125 64.0625 55.078125 55.328125 
Q 55.078125 49.078125 51.53125 44.71875 
Q 48 40.375 41.703125 38.8125 
Q 48.828125 37.15625 52.796875 32.3125 
Q 56.78125 27.484375 56.78125 20.515625 
Q 56.78125 9.90625 50.3125 4.234375 
Q 43.84375 -1.421875 31.78125 -1.421875 
Q 19.734375 -1.421875 13.25 4.234375 
Q 6.78125 9.90625 6.78125 20.515625 
Q 6.78125 27.484375 10.78125 32.3125 
Q 14.796875 37.15625 21.921875 38.8125 
z
M 18.3125 54.390625 
Q 18.3125 48.734375 21.84375 45.5625 
Q 25.390625 42.390625 31.78125 42.390625 
Q 38.140625 42.390625 41.71875 45.5625 
Q 45.3125 48.734375 45.3125 54.390625 
Q 45.3125 60.0625 41.71875 63.234375 
Q 38.140625 66.40625 31.78125 66.40625 
Q 25.390625 66.40625 21.84375 63.234375 
Q 18.3125 60.0625 18.3125 54.390625 
z
" id="DejaVuSans-38"/>
      </defs>
      <g transform="translate(255.024815 326.310906)scale(0.07 -0.07)">
       <use xlink:href="#DejaVuSans-30"/>
       <use x="63.623047" xlink:href="#DejaVuSans-2e"/>
       <use x="95.410156" xlink:href="#DejaVuSans-38"/>
      </g>
     </g>
    </g>
    <g id="xtick_6">
     <g id="line2d_6">
      <g>
       <use style="stroke:#000000;stroke-width:0.8;" x="311.318182" xlink:href="#m8a3c9e9eed" y="313.992"/>
      </g>
     </g>
     <g id="text_6">
      <!-- 1.0 -->
      <defs>
       <path d="M 12.40625 8.296875 
L 28.515625 8.296875 
L 28.515625 63.921875 
L 10.984375 60.40625 
L 10.984375 69.390625 
L 28.421875 72.90625 
L 38.28125 72.90625 
L 38.28125 8.296875 
L 54.390625 8.296875 
L 54.390625 0 
L 12.40625 0 
z
" id="DejaVuSans-31"/>
      </defs>
      <g transform="translate(305.752088 326.310906)scale(0.07 -0.07)">
       <use xlink:href="#DejaVuSans-31"/>
       <use x="63.623047" xlink:href="#DejaVuSans-2e"/>
       <use x="95.410156" xlink:href="#DejaVuSans-30"/>
      </g>
     </g>
    </g>
    <g id="text_7">
     <!-- False positive rate -->
     <defs>
      <path d="M 9.8125 72.90625 
L 51.703125 72.90625 
L 51.703125 64.59375 
L 19.671875 64.59375 
L 19.671875 43.109375 
L 48.578125 43.109375 
L 48.578125 34.8125 
L 19.671875 34.8125 
L 19.671875 0 
L 9.8125 0 
z
" id="DejaVuSans-46"/>
      <path d="M 34.28125 27.484375 
Q 23.390625 27.484375 19.1875 25 
Q 14.984375 22.515625 14.984375 16.5 
Q 14.984375 11.71875 18.140625 8.90625 
Q 21.296875 6.109375 26.703125 6.109375 
Q 34.1875 6.109375 38.703125 11.40625 
Q 43.21875 16.703125 43.21875 25.484375 
L 43.21875 27.484375 
z
M 52.203125 31.203125 
L 52.203125 0 
L 43.21875 0 
L 43.21875 8.296875 
Q 40.140625 3.328125 35.546875 0.953125 
Q 30.953125 -1.421875 24.3125 -1.421875 
Q 15.921875 -1.421875 10.953125 3.296875 
Q 6 8.015625 6 15.921875 
Q 6 25.140625 12.171875 29.828125 
Q 18.359375 34.515625 30.609375 34.515625 
L 43.21875 34.515625 
L 43.21875 35.40625 
Q 43.21875 41.609375 39.140625 45 
Q 35.0625 48.390625 27.6875 48.390625 
Q 23 48.390625 18.546875 47.265625 
Q 14.109375 46.140625 10.015625 43.890625 
L 10.015625 52.203125 
Q 14.9375 54.109375 19.578125 55.046875 
Q 24.21875 56 28.609375 56 
Q 40.484375 56 46.34375 49.84375 
Q 52.203125 43.703125 52.203125 31.203125 
z
" id="DejaVuSans-61"/>
      <path d="M 9.421875 75.984375 
L 18.40625 75.984375 
L 18.40625 0 
L 9.421875 0 
z
" id="DejaVuSans-6c"/>
      <path d="M 44.28125 53.078125 
L 44.28125 44.578125 
Q 40.484375 46.53125 36.375 47.5 
Q 32.28125 48.484375 27.875 48.484375 
Q 21.1875 48.484375 17.84375 46.4375 
Q 14.5 44.390625 14.5 40.28125 
Q 14.5 37.15625 16.890625 35.375 
Q 19.28125 33.59375 26.515625 31.984375 
L 29.59375 31.296875 
Q 39.15625 29.25 43.1875 25.515625 
Q 47.21875 21.78125 47.21875 15.09375 
Q 47.21875 7.46875 41.1875 3.015625 
Q 35.15625 -1.421875 24.609375 -1.421875 
Q 20.21875 -1.421875 15.453125 -0.5625 
Q 10.6875 0.296875 5.421875 2 
L 5.421875 11.28125 
Q 10.40625 8.6875 15.234375 7.390625 
Q 20.0625 6.109375 24.8125 6.109375 
Q 31.15625 6.109375 34.5625 8.28125 
Q 37.984375 10.453125 37.984375 14.40625 
Q 37.984375 18.0625 35.515625 20.015625 
Q 33.0625 21.96875 24.703125 23.78125 
L 21.578125 24.515625 
Q 13.234375 26.265625 9.515625 29.90625 
Q 5.8125 33.546875 5.8125 39.890625 
Q 5.8125 47.609375 11.28125 51.796875 
Q 16.75 56 26.8125 56 
Q 31.78125 56 36.171875 55.265625 
Q 40.578125 54.546875 44.28125 53.078125 
z
" id="DejaVuSans-73"/>
      <path d="M 56.203125 29.59375 
L 56.203125 25.203125 
L 14.890625 25.203125 
Q 15.484375 15.921875 20.484375 11.0625 
Q 25.484375 6.203125 34.421875 6.203125 
Q 39.59375 6.203125 44.453125 7.46875 
Q 49.3125 8.734375 54.109375 11.28125 
L 54.109375 2.78125 
Q 49.265625 0.734375 44.1875 -0.34375 
Q 39.109375 -1.421875 33.890625 -1.421875 
Q 20.796875 -1.421875 13.15625 6.1875 
Q 5.515625 13.8125 5.515625 26.8125 
Q 5.515625 40.234375 12.765625 48.109375 
Q 20.015625 56 32.328125 56 
Q 43.359375 56 49.78125 48.890625 
Q 56.203125 41.796875 56.203125 29.59375 
z
M 47.21875 32.234375 
Q 47.125 39.59375 43.09375 43.984375 
Q 39.0625 48.390625 32.421875 48.390625 
Q 24.90625 48.390625 20.390625 44.140625 
Q 15.875 39.890625 15.1875 32.171875 
z
" id="DejaVuSans-65"/>
      <path id="DejaVuSans-20"/>
      <path d="M 18.109375 8.203125 
L 18.109375 -20.796875 
L 9.078125 -20.796875 
L 9.078125 54.6875 
L 18.109375 54.6875 
L 18.109375 46.390625 
Q 20.953125 51.265625 25.265625 53.625 
Q 29.59375 56 35.59375 56 
Q 45.5625 56 51.78125 48.09375 
Q 58.015625 40.1875 58.015625 27.296875 
Q 58.015625 14.40625 51.78125 6.484375 
Q 45.5625 -1.421875 35.59375 -1.421875 
Q 29.59375 -1.421875 25.265625 0.953125 
Q 20.953125 3.328125 18.109375 8.203125 
z
M 48.6875 27.296875 
Q 48.6875 37.203125 44.609375 42.84375 
Q 40.53125 48.484375 33.40625 48.484375 
Q 26.265625 48.484375 22.1875 42.84375 
Q 18.109375 37.203125 18.109375 27.296875 
Q 18.109375 17.390625 22.1875 11.75 
Q 26.265625 6.109375 33.40625 6.109375 
Q 40.53125 6.109375 44.609375 11.75 
Q 48.6875 17.390625 48.6875 27.296875 
z
" id="DejaVuSans-70"/>
      <path d="M 30.609375 48.390625 
Q 23.390625 48.390625 19.1875 42.75 
Q 14.984375 37.109375 14.984375 27.296875 
Q 14.984375 17.484375 19.15625 11.84375 
Q 23.34375 6.203125 30.609375 6.203125 
Q 37.796875 6.203125 41.984375 11.859375 
Q 46.1875 17.53125 46.1875 27.296875 
Q 46.1875 37.015625 41.984375 42.703125 
Q 37.796875 48.390625 30.609375 48.390625 
z
M 30.609375 56 
Q 42.328125 56 49.015625 48.375 
Q 55.71875 40.765625 55.71875 27.296875 
Q 55.71875 13.875 49.015625 6.21875 
Q 42.328125 -1.421875 30.609375 -1.421875 
Q 18.84375 -1.421875 12.171875 6.21875 
Q 5.515625 13.875 5.515625 27.296875 
Q 5.515625 40.765625 12.171875 48.375 
Q 18.84375 56 30.609375 56 
z
" id="DejaVuSans-6f"/>
      <path d="M 9.421875 54.6875 
L 18.40625 54.6875 
L 18.40625 0 
L 9.421875 0 
z
M 9.421875 75.984375 
L 18.40625 75.984375 
L 18.40625 64.59375 
L 9.421875 64.59375 
z
" id="DejaVuSans-69"/>
      <path d="M 18.3125 70.21875 
L 18.3125 54.6875 
L 36.8125 54.6875 
L 36.8125 47.703125 
L 18.3125 47.703125 
L 18.3125 18.015625 
Q 18.3125 11.328125 20.140625 9.421875 
Q 21.96875 7.515625 27.59375 7.515625 
L 36.8125 7.515625 
L 36.8125 0 
L 27.59375 0 
Q 17.1875 0 13.234375 3.875 
Q 9.28125 7.765625 9.28125 18.015625 
L 9.28125 47.703125 
L 2.6875 47.703125 
L 2.6875 54.6875 
L 9.28125 54.6875 
L 9.28125 70.21875 
z
" id="DejaVuSans-74"/>
      <path d="M 2.984375 54.6875 
L 12.5 54.6875 
L 29.59375 8.796875 
L 46.6875 54.6875 
L 56.203125 54.6875 
L 35.6875 0 
L 23.484375 0 
z
" id="DejaVuSans-76"/>
      <path d="M 41.109375 46.296875 
Q 39.59375 47.171875 37.8125 47.578125 
Q 36.03125 48 33.890625 48 
Q 26.265625 48 22.1875 43.046875 
Q 18.109375 38.09375 18.109375 28.8125 
L 18.109375 0 
L 9.078125 0 
L 9.078125 54.6875 
L 18.109375 54.6875 
L 18.109375 46.1875 
Q 20.953125 51.171875 25.484375 53.578125 
Q 30.03125 56 36.53125 56 
Q 37.453125 56 38.578125 55.875 
Q 39.703125 55.765625 41.0625 55.515625 
z
" id="DejaVuSans-72"/>
     </defs>
     <g transform="translate(138.55 339.365125)scale(0.1 -0.1)">
      <use xlink:href="#DejaVuSans-46"/>
      <use x="57.378906" xlink:href="#DejaVuSans-61"/>
      <use x="118.658203" xlink:href="#DejaVuSans-6c"/>
      <use x="146.441406" xlink:href="#DejaVuSans-73"/>
      <use x="198.541016" xlink:href="#DejaVuSans-65"/>
      <use x="260.064453" xlink:href="#DejaVuSans-20"/>
      <use x="291.851562" xlink:href="#DejaVuSans-70"/>
      <use x="355.328125" xlink:href="#DejaVuSans-6f"/>
      <use x="416.509766" xlink:href="#DejaVuSans-73"/>
      <use x="468.609375" xlink:href="#DejaVuSans-69"/>
      <use x="496.392578" xlink:href="#DejaVuSans-74"/>
      <use x="535.601562" xlink:href="#DejaVuSans-69"/>
      <use x="563.384766" xlink:href="#DejaVuSans-76"/>
      <use x="622.564453" xlink:href="#DejaVuSans-65"/>
      <use x="684.087891" xlink:href="#DejaVuSans-20"/>
      <use x="715.875" xlink:href="#DejaVuSans-72"/>
      <use x="756.988281" xlink:href="#DejaVuSans-61"/>
      <use x="818.267578" xlink:href="#DejaVuSans-74"/>
      <use x="857.476562" xlink:href="#DejaVuSans-65"/>
     </g>
    </g>
   </g>
   <g id="matplotlib.axis_2">
    <g id="ytick_1">
     <g id="line2d_7">
      <defs>
       <path d="M 0 0 
L -3.5 0 
" id="ma4d1804dc0" style="stroke:#000000;stroke-width:0.8;"/>
      </defs>
      <g>
       <use style="stroke:#000000;stroke-width:0.8;" x="45" xlink:href="#ma4d1804dc0" y="301.644"/>
      </g>
     </g>
     <g id="text_8">
      <!-- 0.0 -->
      <g transform="translate(26.867812 304.303453)scale(0.07 -0.07)">
       <use xlink:href="#DejaVuSans-30"/>
       <use x="63.623047" xlink:href="#DejaVuSans-2e"/>
       <use x="95.410156" xlink:href="#DejaVuSans-30"/>
      </g>
     </g>
    </g>
    <g id="ytick_2">
     <g id="line2d_8">
      <g>
       <use style="stroke:#000000;stroke-width:0.8;" x="45" xlink:href="#ma4d1804dc0" y="252.252"/>
      </g>
     </g>
     <g id="text_9">
      <!-- 0.2 -->
      <g transform="translate(26.867812 254.911453)scale(0.07 -0.07)">
       <use xlink:href="#DejaVuSans-30"/>
       <use x="63.623047" xlink:href="#DejaVuSans-2e"/>
       <use x="95.410156" xlink:href="#DejaVuSans-32"/>
      </g>
     </g>
    </g>
    <g id="ytick_3">
     <g id="line2d_9">
      <g>
       <use style="stroke:#000000;stroke-width:0.8;" x="45" xlink:href="#ma4d1804dc0" y="202.86"/>
      </g>
     </g>
     <g id="text_10">
      <!-- 0.4 -->
      <g transform="translate(26.867812 205.519453)scale(0.07 -0.07)">
       <use xlink:href="#DejaVuSans-30"/>
       <use x="63.623047" xlink:href="#DejaVuSans-2e"/>
       <use x="95.410156" xlink:href="#DejaVuSans-34"/>
      </g>
     </g>
    </g>
    <g id="ytick_4">
     <g id="line2d_10">
      <g>
       <use style="stroke:#000000;stroke-width:0.8;" x="45" xlink:href="#ma4d1804dc0" y="153.468"/>
      </g>
     </g>
     <g id="text_11">
      <!-- 0.6 -->
      <g transform="translate(26.867812 156.127453)scale(0.07 -0.07)">
       <use xlink:href="#DejaVuSans-30"/>
       <use x="63.623047" xlink:href="#DejaVuSans-2e"/>
       <use x="95.410156" xlink:href="#DejaVuSans-36"/>
      </g>
     </g>
    </g>
    <g id="ytick_5">
     <g id="line2d_11">
      <g>
       <use style="stroke:#000000;stroke-width:0.8;" x="45" xlink:href="#ma4d1804dc0" y="104.076"/>
      </g>
     </g>
     <g id="text_12">
      <!-- 0.8 -->
      <g transform="translate(26.867812 106.735453)scale(0.07 -0.07)">
       <use xlink:href="#DejaVuSans-30"/>
       <use x="63.623047" xlink:href="#DejaVuSans-2e"/>
       <use x="95.410156" xlink:href="#DejaVuSans-38"/>
      </g>
     </g>
    </g>
    <g id="ytick_6">
     <g id="line2d_12">
      <g>
       <use style="stroke:#000000;stroke-width:0.8;" x="45" xlink:href="#ma4d1804dc0" y="54.684"/>
      </g>
     </g>
     <g id="text_13">
      <!-- 1.0 -->
      <g transform="translate(26.867812 57.343453)scale(0.07 -0.07)">
       <use xlink:href="#DejaVuSans-31"/>
       <use x="63.623047" xlink:href="#DejaVuSans-2e"/>
       <use x="95.410156" xlink:href="#DejaVuSans-30"/>
      </g>
     </g>
    </g>
    <g id="text_14">
     <!-- True positive rate -->
     <defs>
      <path d="M -0.296875 72.90625 
L 61.375 72.90625 
L 61.375 64.59375 
L 35.5 64.59375 
L 35.5 0 
L 25.59375 0 
L 25.59375 64.59375 
L -0.296875 64.59375 
z
" id="DejaVuSans-54"/>
      <path d="M 8.5 21.578125 
L 8.5 54.6875 
L 17.484375 54.6875 
L 17.484375 21.921875 
Q 17.484375 14.15625 20.5 10.265625 
Q 23.53125 6.390625 29.59375 6.390625 
Q 36.859375 6.390625 41.078125 11.03125 
Q 45.3125 15.671875 45.3125 23.6875 
L 45.3125 54.6875 
L 54.296875 54.6875 
L 54.296875 0 
L 45.3125 0 
L 45.3125 8.40625 
Q 42.046875 3.421875 37.71875 1 
Q 33.40625 -1.421875 27.6875 -1.421875 
Q 18.265625 -1.421875 13.375 4.4375 
Q 8.5 10.296875 8.5 21.578125 
z
M 31.109375 56 
z
" id="DejaVuSans-75"/>
     </defs>
     <g transform="translate(20.788125 222.454625)rotate(-90)scale(0.1 -0.1)">
      <use xlink:href="#DejaVuSans-54"/>
      <use x="60.865234" xlink:href="#DejaVuSans-72"/>
      <use x="101.978516" xlink:href="#DejaVuSans-75"/>
      <use x="165.357422" xlink:href="#DejaVuSans-65"/>
      <use x="226.880859" xlink:href="#DejaVuSans-20"/>
      <use x="258.667969" xlink:href="#DejaVuSans-70"/>
      <use x="322.144531" xlink:href="#DejaVuSans-6f"/>
      <use x="383.326172" xlink:href="#DejaVuSans-73"/>
      <use x="435.425781" xlink:href="#DejaVuSans-69"/>
      <use x="463.208984" xlink:href="#DejaVuSans-74"/>
      <use x="502.417969" xlink:href="#DejaVuSans-69"/>
      <use x="530.201172" xlink:href="#DejaVuSans-76"/>
      <use x="589.380859" xlink:href="#DejaVuSans-65"/>
      <use x="650.904297" xlink:href="#DejaVuSans-20"/>
      <use x="682.691406" xlink:href="#DejaVuSans-72"/>
      <use x="723.804688" xlink:href="#DejaVuSans-61"/>
      <use x="785.083984" xlink:href="#DejaVuSans-74"/>
      <use x="824.292969" xlink:href="#DejaVuSans-65"/>
     </g>
    </g>
   </g>
   <g id="line2d_13">
    <path clip-path="url(#p95830d0cd0)" d="M 57.681818 301.644 
L 60.243802 238.924 
L 62.805785 238.924 
L 65.367769 238.924 
L 67.929752 201.684 
L 70.491736 201.684 
L 73.053719 201.684 
L 75.615702 201.684 
L 78.177686 189.924 
L 80.739669 189.924 
L 83.301653 189.924 
L 85.863636 189.924 
L 88.42562 154.644 
L 90.987603 154.644 
L 93.549587 154.644 
L 96.11157 154.644 
L 98.673554 142.884 
L 101.235537 142.884 
L 103.797521 142.884 
L 106.359504 142.884 
L 108.921488 142.884 
L 111.483471 142.884 
L 114.045455 142.884 
L 116.607438 142.884 
L 119.169421 142.884 
L 121.731405 142.884 
L 124.293388 142.884 
L 126.855372 131.124 
L 129.417355 131.124 
L 131.979339 131.124 
L 134.541322 131.124 
L 137.103306 131.124 
L 139.665289 131.124 
L 142.227273 131.124 
L 144.789256 131.124 
L 147.35124 131.124 
L 149.913223 118.740364 
L 152.475207 117.00804 
L 155.03719 115.275717 
L 157.599174 113.543394 
L 160.161157 111.811071 
L 162.72314 110.078747 
L 165.285124 108.346424 
L 167.847107 106.614101 
L 170.409091 104.119556 
L 172.971074 100.654909 
L 175.533058 97.190263 
L 178.095041 93.725616 
L 180.657025 78.204 
L 183.219008 78.204 
L 185.780992 78.204 
L 188.342975 78.204 
L 190.904959 78.204 
L 193.466942 78.204 
L 196.028926 66.444 
L 198.590909 66.444 
L 201.152893 66.444 
L 203.714876 66.444 
L 206.27686 66.444 
L 208.838843 66.444 
L 211.400826 66.444 
L 213.96281 66.444 
L 216.524793 66.444 
L 219.086777 66.444 
L 221.64876 66.444 
L 224.210744 66.444 
L 226.772727 66.444 
L 229.334711 66.444 
L 231.896694 54.684 
L 234.458678 54.684 
L 237.020661 54.684 
L 239.582645 54.684 
L 242.144628 54.684 
L 244.706612 54.684 
L 247.268595 54.684 
L 249.830579 54.684 
L 252.392562 54.684 
L 254.954545 54.684 
L 257.516529 54.684 
L 260.078512 54.684 
L 262.640496 54.684 
L 265.202479 54.684 
L 267.764463 54.684 
L 270.326446 54.684 
L 272.88843 54.684 
L 275.450413 54.684 
L 278.012397 54.684 
L 280.57438 54.684 
L 283.136364 54.684 
L 285.698347 54.684 
L 288.260331 54.684 
L 290.822314 54.684 
L 293.384298 54.684 
L 295.946281 54.684 
L 298.508264 54.684 
L 301.070248 54.684 
L 303.632231 54.684 
L 306.194215 54.684 
L 308.756198 54.684 
L 311.318182 54.684 
" style="fill:none;stroke:#f8766e;stroke-linecap:square;stroke-opacity:0.8;stroke-width:1.8;"/>
   </g>
   <g id="line2d_14">
    <path clip-path="url(#p95830d0cd0)" d="M 57.681818 301.644 
L 60.243802 256.074 
L 62.805785 256.074 
L 65.367769 256.074 
L 67.929752 256.074 
L 70.491736 235.494 
L 73.053719 235.494 
L 75.615702 235.494 
L 78.177686 235.494 
L 80.739669 223.734 
L 83.301653 223.734 
L 85.863636 223.734 
L 88.42562 223.734 
L 90.987603 211.974 
L 93.549587 211.974 
L 96.11157 211.974 
L 98.673554 211.558242 
L 101.235537 208.959758 
L 103.797521 206.361273 
L 106.359504 203.762788 
L 108.921488 201.684 
L 111.483471 191.394 
L 114.045455 191.394 
L 116.607438 191.394 
L 119.169421 191.394 
L 121.731405 169.344 
L 124.293388 169.344 
L 126.855372 169.344 
L 129.417355 159.054 
L 131.979339 159.054 
L 134.541322 159.054 
L 137.103306 159.054 
L 139.665289 148.764 
L 142.227273 148.764 
L 144.789256 148.764 
L 147.35124 148.764 
L 149.913223 148.764 
L 152.475207 148.764 
L 155.03719 148.764 
L 157.599174 148.764 
L 160.161157 148.764 
L 162.72314 148.764 
L 165.285124 148.764 
L 167.847107 148.764 
L 170.409091 138.474 
L 172.971074 138.474 
L 175.533058 138.474 
L 178.095041 138.474 
L 180.657025 128.184 
L 183.219008 128.184 
L 185.780992 128.184 
L 188.342975 128.184 
L 190.904959 128.184 
L 193.466942 128.184 
L 196.028926 128.184 
L 198.590909 128.184 
L 201.152893 126.728848 
L 203.714876 124.130364 
L 206.27686 111.241879 
L 208.838843 108.643394 
L 211.400826 107.604 
L 213.96281 107.604 
L 216.524793 107.604 
L 219.086777 107.604 
L 221.64876 107.604 
L 224.210744 107.604 
L 226.772727 97.314 
L 229.334711 94.463091 
L 231.896694 91.612182 
L 234.458678 88.761273 
L 237.020661 85.910364 
L 239.582645 85.554 
L 242.144628 85.554 
L 244.706612 85.554 
L 247.268595 85.554 
L 249.830579 85.554 
L 252.392562 85.554 
L 254.954545 85.554 
L 257.516529 85.554 
L 260.078512 85.554 
L 262.640496 75.264 
L 265.202479 75.264 
L 267.764463 75.264 
L 270.326446 64.974 
L 272.88843 64.974 
L 275.450413 64.974 
L 278.012397 64.974 
L 280.57438 64.974 
L 283.136364 54.684 
L 285.698347 54.684 
L 288.260331 54.684 
L 290.822314 54.684 
L 293.384298 54.684 
L 295.946281 54.684 
L 298.508264 54.684 
L 301.070248 54.684 
L 303.632231 54.684 
L 306.194215 54.684 
L 308.756198 54.684 
L 311.318182 54.684 
" style="fill:none;stroke:#7cad00;stroke-linecap:square;stroke-opacity:0.8;stroke-width:1.8;"/>
   </g>
   <g id="line2d_15">
    <path clip-path="url(#p95830d0cd0)" d="M 57.681818 301.644 
L 60.243802 284.265333 
L 62.805785 284.265333 
L 65.367769 284.265333 
L 67.929752 284.265333 
L 70.491736 275.118667 
L 73.053719 275.118667 
L 75.615702 275.118667 
L 78.177686 275.118667 
L 80.739669 265.972 
L 83.301653 263.939407 
L 85.863636 261.906815 
L 88.42562 259.874222 
L 90.987603 257.84163 
L 93.549587 256.825333 
L 96.11157 256.825333 
L 98.673554 256.825333 
L 101.235537 256.825333 
L 103.797521 238.532 
L 106.359504 238.532 
L 108.921488 238.532 
L 111.483471 238.532 
L 114.045455 230.3 
L 116.607438 230.3 
L 119.169421 230.3 
L 121.731405 230.3 
L 124.293388 194.628 
L 126.855372 194.628 
L 129.417355 194.628 
L 131.979339 194.628 
L 134.541322 194.628 
L 137.103306 186.396 
L 139.665289 176.233037 
L 142.227273 174.200444 
L 144.789256 172.167852 
L 147.35124 134.463259 
L 149.913223 132.430667 
L 152.475207 132.430667 
L 155.03719 132.430667 
L 157.599174 124.198667 
L 160.161157 124.198667 
L 162.72314 124.198667 
L 165.285124 124.198667 
L 167.847107 124.198667 
L 170.409091 115.966667 
L 172.971074 115.966667 
L 175.533058 115.966667 
L 178.095041 115.966667 
L 180.657025 107.734667 
L 183.219008 107.734667 
L 185.780992 107.734667 
L 188.342975 107.734667 
L 190.904959 99.502667 
L 193.466942 99.502667 
L 196.028926 99.502667 
L 198.590909 99.502667 
L 201.152893 90.356 
L 203.714876 90.356 
L 206.27686 90.356 
L 208.838843 90.356 
L 211.400826 90.356 
L 213.96281 90.356 
L 216.524793 90.356 
L 219.086777 90.356 
L 221.64876 90.356 
L 224.210744 81.209333 
L 226.772727 81.209333 
L 229.334711 81.209333 
L 231.896694 81.209333 
L 234.458678 72.062667 
L 237.020661 72.062667 
L 239.582645 72.062667 
L 242.144628 72.062667 
L 244.706612 72.062667 
L 247.268595 72.062667 
L 249.830579 72.062667 
L 252.392562 72.062667 
L 254.954545 62.916 
L 257.516529 54.684 
L 260.078512 54.684 
L 262.640496 54.684 
L 265.202479 54.684 
L 267.764463 54.684 
L 270.326446 54.684 
L 272.88843 54.684 
L 275.450413 54.684 
L 278.012397 54.684 
L 280.57438 54.684 
L 283.136364 54.684 
L 285.698347 54.684 
L 288.260331 54.684 
L 290.822314 54.684 
L 293.384298 54.684 
L 295.946281 54.684 
L 298.508264 54.684 
L 301.070248 54.684 
L 303.632231 54.684 
L 306.194215 54.684 
L 308.756198 54.684 
L 311.318182 54.684 
" style="fill:none;stroke:#00bec3;stroke-linecap:square;stroke-opacity:0.8;stroke-width:1.8;"/>
   </g>
   <g id="line2d_16">
    <path clip-path="url(#p95830d0cd0)" d="M 57.681818 301.644 
L 60.243802 201.030667 
L 62.805785 201.030667 
L 65.367769 201.030667 
L 67.929752 201.030667 
L 70.491736 182.737333 
L 73.053719 182.737333 
L 75.615702 182.737333 
L 78.177686 182.737333 
L 80.739669 146.150667 
L 83.301653 146.150667 
L 85.863636 146.150667 
L 88.42562 146.150667 
L 90.987603 146.150667 
L 93.549587 146.150667 
L 96.11157 146.150667 
L 98.673554 146.150667 
L 101.235537 146.150667 
L 103.797521 135.860667 
L 106.359504 135.860667 
L 108.921488 135.860667 
L 111.483471 115.280667 
L 114.045455 94.700667 
L 116.607438 94.700667 
L 119.169421 94.700667 
L 121.731405 94.700667 
L 124.293388 94.700667 
L 126.855372 94.700667 
L 129.417355 94.700667 
L 131.979339 94.700667 
L 134.541322 94.700667 
L 137.103306 74.120667 
L 139.665289 74.120667 
L 142.227273 74.120667 
L 144.789256 74.120667 
L 147.35124 74.120667 
L 149.913223 74.120667 
L 152.475207 74.120667 
L 155.03719 63.830667 
L 157.599174 63.830667 
L 160.161157 63.830667 
L 162.72314 63.830667 
L 165.285124 63.830667 
L 167.847107 63.830667 
L 170.409091 63.830667 
L 172.971074 63.830667 
L 175.533058 63.830667 
L 178.095041 63.830667 
L 180.657025 63.830667 
L 183.219008 63.830667 
L 185.780992 63.830667 
L 188.342975 63.830667 
L 190.904959 63.830667 
L 193.466942 63.830667 
L 196.028926 63.830667 
L 198.590909 63.830667 
L 201.152893 63.830667 
L 203.714876 63.830667 
L 206.27686 63.830667 
L 208.838843 63.830667 
L 211.400826 63.830667 
L 213.96281 63.830667 
L 216.524793 63.830667 
L 219.086777 63.830667 
L 221.64876 63.830667 
L 224.210744 63.830667 
L 226.772727 63.830667 
L 229.334711 63.830667 
L 231.896694 63.830667 
L 234.458678 63.830667 
L 237.020661 63.830667 
L 239.582645 63.830667 
L 242.144628 63.830667 
L 244.706612 63.830667 
L 247.268595 63.830667 
L 249.830579 54.684 
L 252.392562 54.684 
L 254.954545 54.684 
L 257.516529 54.684 
L 260.078512 54.684 
L 262.640496 54.684 
L 265.202479 54.684 
L 267.764463 54.684 
L 270.326446 54.684 
L 272.88843 54.684 
L 275.450413 54.684 
L 278.012397 54.684 
L 280.57438 54.684 
L 283.136364 54.684 
L 285.698347 54.684 
L 288.260331 54.684 
L 290.822314 54.684 
L 293.384298 54.684 
L 295.946281 54.684 
L 298.508264 54.684 
L 301.070248 54.684 
L 303.632231 54.684 
L 306.194215 54.684 
L 308.756198 54.684 
L 311.318182 54.684 
" style="fill:none;stroke:#c67cff;stroke-linecap:square;stroke-opacity:0.8;stroke-width:1.8;"/>
   </g>
   <g id="line2d_17">
    <path clip-path="url(#p95830d0cd0)" d="M 57.681818 301.644 
L 311.318182 54.684 
" style="fill:none;stroke:#000000;stroke-dasharray:7.4,3.2;stroke-dashoffset:0;stroke-opacity:0.6;stroke-width:2;"/>
   </g>
   <g id="patch_3">
    <path d="M 45 313.992 
L 45 42.336 
" style="fill:none;stroke:#000000;stroke-linecap:square;stroke-linejoin:miter;stroke-width:0.8;"/>
   </g>
   <g id="patch_4">
    <path d="M 324 313.992 
L 324 42.336 
" style="fill:none;stroke:#000000;stroke-linecap:square;stroke-linejoin:miter;stroke-width:0.8;"/>
   </g>
   <g id="patch_5">
    <path d="M 45 313.992 
L 324 313.992 
" style="fill:none;stroke:#000000;stroke-linecap:square;stroke-linejoin:miter;stroke-width:0.8;"/>
   </g>
   <g id="patch_6">
    <path d="M 45 42.336 
L 324 42.336 
" style="fill:none;stroke:#000000;stroke-linecap:square;stroke-linejoin:miter;stroke-width:0.8;"/>
   </g>
   <g id="text_15">
    <!-- ROC curve of the class -->
    <defs>
     <path d="M 35.890625 40.578125 
Q 41.796875 40.578125 44.359375 42.765625 
Q 46.921875 44.96875 46.921875 50 
Q 46.921875 54.984375 44.359375 57.125 
Q 41.796875 59.28125 35.890625 59.28125 
L 27.984375 59.28125 
L 27.984375 40.578125 
z
M 27.984375 27.59375 
L 27.984375 0 
L 9.1875 0 
L 9.1875 72.90625 
L 37.890625 72.90625 
Q 52.296875 72.90625 59 68.0625 
Q 65.71875 63.234375 65.71875 52.78125 
Q 65.71875 45.5625 62.21875 40.921875 
Q 58.734375 36.28125 51.703125 34.078125 
Q 55.5625 33.203125 58.609375 30.09375 
Q 61.671875 27 64.796875 20.703125 
L 75 0 
L 54.984375 0 
L 46.09375 18.109375 
Q 43.40625 23.578125 40.640625 25.578125 
Q 37.890625 27.59375 33.296875 27.59375 
z
" id="DejaVuSans-Bold-52"/>
     <path d="M 42.484375 60.59375 
Q 33.890625 60.59375 29.15625 54.25 
Q 24.421875 47.90625 24.421875 36.375 
Q 24.421875 24.90625 29.15625 18.546875 
Q 33.890625 12.203125 42.484375 12.203125 
Q 51.125 12.203125 55.859375 18.546875 
Q 60.59375 24.90625 60.59375 36.375 
Q 60.59375 47.90625 55.859375 54.25 
Q 51.125 60.59375 42.484375 60.59375 
z
M 42.484375 74.21875 
Q 60.0625 74.21875 70.015625 64.15625 
Q 79.984375 54.109375 79.984375 36.375 
Q 79.984375 18.703125 70.015625 8.640625 
Q 60.0625 -1.421875 42.484375 -1.421875 
Q 24.953125 -1.421875 14.96875 8.640625 
Q 4.984375 18.703125 4.984375 36.375 
Q 4.984375 54.109375 14.96875 64.15625 
Q 24.953125 74.21875 42.484375 74.21875 
z
" id="DejaVuSans-Bold-4f"/>
     <path d="M 67 4 
Q 61.8125 1.3125 56.203125 -0.046875 
Q 50.59375 -1.421875 44.484375 -1.421875 
Q 26.265625 -1.421875 15.625 8.765625 
Q 4.984375 18.953125 4.984375 36.375 
Q 4.984375 53.859375 15.625 64.03125 
Q 26.265625 74.21875 44.484375 74.21875 
Q 50.59375 74.21875 56.203125 72.84375 
Q 61.8125 71.484375 67 68.796875 
L 67 53.71875 
Q 61.765625 57.28125 56.6875 58.9375 
Q 51.609375 60.59375 46 60.59375 
Q 35.9375 60.59375 30.171875 54.140625 
Q 24.421875 47.703125 24.421875 36.375 
Q 24.421875 25.09375 30.171875 18.640625 
Q 35.9375 12.203125 46 12.203125 
Q 51.609375 12.203125 56.6875 13.859375 
Q 61.765625 15.53125 67 19.09375 
z
" id="DejaVuSans-Bold-43"/>
     <path id="DejaVuSans-Bold-20"/>
     <path d="M 52.59375 52.984375 
L 52.59375 38.71875 
Q 49.03125 41.15625 45.4375 42.328125 
Q 41.84375 43.5 37.984375 43.5 
Q 30.671875 43.5 26.59375 39.234375 
Q 22.515625 34.96875 22.515625 27.296875 
Q 22.515625 19.625 26.59375 15.34375 
Q 30.671875 11.078125 37.984375 11.078125 
Q 42.09375 11.078125 45.78125 12.296875 
Q 49.46875 13.53125 52.59375 15.921875 
L 52.59375 1.609375 
Q 48.484375 0.09375 44.265625 -0.65625 
Q 40.046875 -1.421875 35.796875 -1.421875 
Q 21 -1.421875 12.640625 6.171875 
Q 4.296875 13.765625 4.296875 27.296875 
Q 4.296875 40.828125 12.640625 48.40625 
Q 21 56 35.796875 56 
Q 40.09375 56 44.265625 55.25 
Q 48.4375 54.5 52.59375 52.984375 
z
" id="DejaVuSans-Bold-63"/>
     <path d="M 7.8125 21.296875 
L 7.8125 54.6875 
L 25.390625 54.6875 
L 25.390625 49.21875 
Q 25.390625 44.78125 25.34375 38.0625 
Q 25.296875 31.34375 25.296875 29.109375 
Q 25.296875 22.515625 25.640625 19.609375 
Q 25.984375 16.703125 26.8125 15.375 
Q 27.875 13.671875 29.609375 12.734375 
Q 31.34375 11.8125 33.59375 11.8125 
Q 39.0625 11.8125 42.1875 16.015625 
Q 45.3125 20.21875 45.3125 27.6875 
L 45.3125 54.6875 
L 62.796875 54.6875 
L 62.796875 0 
L 45.3125 0 
L 45.3125 7.90625 
Q 41.359375 3.125 36.9375 0.84375 
Q 32.515625 -1.421875 27.203125 -1.421875 
Q 17.71875 -1.421875 12.765625 4.390625 
Q 7.8125 10.203125 7.8125 21.296875 
z
" id="DejaVuSans-Bold-75"/>
     <path d="M 49.03125 39.796875 
Q 46.734375 40.875 44.453125 41.375 
Q 42.1875 41.890625 39.890625 41.890625 
Q 33.15625 41.890625 29.515625 37.5625 
Q 25.875 33.25 25.875 25.203125 
L 25.875 0 
L 8.40625 0 
L 8.40625 54.6875 
L 25.875 54.6875 
L 25.875 45.703125 
Q 29.25 51.078125 33.609375 53.53125 
Q 37.984375 56 44.09375 56 
Q 44.96875 56 45.984375 55.921875 
Q 47.015625 55.859375 48.96875 55.609375 
z
" id="DejaVuSans-Bold-72"/>
     <path d="M 1.515625 54.6875 
L 19 54.6875 
L 32.625 16.890625 
L 46.1875 54.6875 
L 63.71875 54.6875 
L 42.1875 0 
L 23 0 
z
" id="DejaVuSans-Bold-76"/>
     <path d="M 62.984375 27.484375 
L 62.984375 22.515625 
L 22.125 22.515625 
Q 22.75 16.359375 26.5625 13.28125 
Q 30.375 10.203125 37.203125 10.203125 
Q 42.71875 10.203125 48.5 11.84375 
Q 54.296875 13.484375 60.40625 16.796875 
L 60.40625 3.328125 
Q 54.203125 0.984375 48 -0.21875 
Q 41.796875 -1.421875 35.59375 -1.421875 
Q 20.75 -1.421875 12.515625 6.125 
Q 4.296875 13.671875 4.296875 27.296875 
Q 4.296875 40.671875 12.375 48.328125 
Q 20.453125 56 34.625 56 
Q 47.515625 56 55.25 48.234375 
Q 62.984375 40.484375 62.984375 27.484375 
z
M 45.015625 33.296875 
Q 45.015625 38.28125 42.109375 41.328125 
Q 39.203125 44.390625 34.515625 44.390625 
Q 29.4375 44.390625 26.265625 41.53125 
Q 23.09375 38.671875 22.3125 33.296875 
z
" id="DejaVuSans-Bold-65"/>
     <path d="M 34.421875 43.5 
Q 28.609375 43.5 25.5625 39.328125 
Q 22.515625 35.15625 22.515625 27.296875 
Q 22.515625 19.4375 25.5625 15.25 
Q 28.609375 11.078125 34.421875 11.078125 
Q 40.140625 11.078125 43.15625 15.25 
Q 46.1875 19.4375 46.1875 27.296875 
Q 46.1875 35.15625 43.15625 39.328125 
Q 40.140625 43.5 34.421875 43.5 
z
M 34.421875 56 
Q 48.53125 56 56.46875 48.375 
Q 64.40625 40.765625 64.40625 27.296875 
Q 64.40625 13.8125 56.46875 6.1875 
Q 48.53125 -1.421875 34.421875 -1.421875 
Q 20.265625 -1.421875 12.28125 6.1875 
Q 4.296875 13.8125 4.296875 27.296875 
Q 4.296875 40.765625 12.28125 48.375 
Q 20.265625 56 34.421875 56 
z
" id="DejaVuSans-Bold-6f"/>
     <path d="M 44.390625 75.984375 
L 44.390625 64.5 
L 34.71875 64.5 
Q 31 64.5 29.53125 63.15625 
Q 28.078125 61.8125 28.078125 58.5 
L 28.078125 54.6875 
L 43.015625 54.6875 
L 43.015625 42.1875 
L 28.078125 42.1875 
L 28.078125 0 
L 10.59375 0 
L 10.59375 42.1875 
L 1.90625 42.1875 
L 1.90625 54.6875 
L 10.59375 54.6875 
L 10.59375 58.5 
Q 10.59375 67.4375 15.578125 71.703125 
Q 20.5625 75.984375 31 75.984375 
z
" id="DejaVuSans-Bold-66"/>
     <path d="M 27.484375 70.21875 
L 27.484375 54.6875 
L 45.515625 54.6875 
L 45.515625 42.1875 
L 27.484375 42.1875 
L 27.484375 19 
Q 27.484375 15.1875 29 13.84375 
Q 30.515625 12.5 35.015625 12.5 
L 44 12.5 
L 44 0 
L 29 0 
Q 18.65625 0 14.328125 4.3125 
Q 10.015625 8.640625 10.015625 19 
L 10.015625 42.1875 
L 1.3125 42.1875 
L 1.3125 54.6875 
L 10.015625 54.6875 
L 10.015625 70.21875 
z
" id="DejaVuSans-Bold-74"/>
     <path d="M 63.375 33.296875 
L 63.375 0 
L 45.796875 0 
L 45.796875 5.421875 
L 45.796875 25.390625 
Q 45.796875 32.5625 45.484375 35.25 
Q 45.171875 37.9375 44.390625 39.203125 
Q 43.359375 40.921875 41.59375 41.875 
Q 39.84375 42.828125 37.59375 42.828125 
Q 32.125 42.828125 29 38.59375 
Q 25.875 34.375 25.875 26.90625 
L 25.875 0 
L 8.40625 0 
L 8.40625 75.984375 
L 25.875 75.984375 
L 25.875 46.6875 
Q 29.828125 51.46875 34.265625 53.734375 
Q 38.71875 56 44.09375 56 
Q 53.5625 56 58.46875 50.1875 
Q 63.375 44.390625 63.375 33.296875 
z
" id="DejaVuSans-Bold-68"/>
     <path d="M 8.40625 75.984375 
L 25.875 75.984375 
L 25.875 0 
L 8.40625 0 
z
" id="DejaVuSans-Bold-6c"/>
     <path d="M 32.90625 24.609375 
Q 27.4375 24.609375 24.671875 22.75 
Q 21.921875 20.90625 21.921875 17.28125 
Q 21.921875 13.96875 24.140625 12.078125 
Q 26.375 10.203125 30.328125 10.203125 
Q 35.25 10.203125 38.625 13.734375 
Q 42 17.28125 42 22.609375 
L 42 24.609375 
z
M 59.625 31.203125 
L 59.625 0 
L 42 0 
L 42 8.109375 
Q 38.484375 3.125 34.078125 0.84375 
Q 29.6875 -1.421875 23.390625 -1.421875 
Q 14.890625 -1.421875 9.59375 3.53125 
Q 4.296875 8.5 4.296875 16.40625 
Q 4.296875 26.03125 10.90625 30.515625 
Q 17.53125 35.015625 31.6875 35.015625 
L 42 35.015625 
L 42 36.375 
Q 42 40.53125 38.71875 42.453125 
Q 35.453125 44.390625 28.515625 44.390625 
Q 22.90625 44.390625 18.0625 43.265625 
Q 13.234375 42.140625 9.078125 39.890625 
L 9.078125 53.21875 
Q 14.703125 54.59375 20.359375 55.296875 
Q 26.03125 56 31.6875 56 
Q 46.484375 56 53.046875 50.171875 
Q 59.625 44.34375 59.625 31.203125 
z
" id="DejaVuSans-Bold-61"/>
     <path d="M 51.125 52.984375 
L 51.125 39.703125 
Q 45.515625 42.046875 40.28125 43.21875 
Q 35.0625 44.390625 30.421875 44.390625 
Q 25.4375 44.390625 23.015625 43.140625 
Q 20.609375 41.890625 20.609375 39.3125 
Q 20.609375 37.203125 22.4375 36.078125 
Q 24.265625 34.96875 29 34.421875 
L 32.078125 33.984375 
Q 45.515625 32.28125 50.140625 28.375 
Q 54.78125 24.46875 54.78125 16.109375 
Q 54.78125 7.375 48.328125 2.96875 
Q 41.890625 -1.421875 29.109375 -1.421875 
Q 23.6875 -1.421875 17.890625 -0.5625 
Q 12.109375 0.296875 6 2 
L 6 15.28125 
Q 11.234375 12.75 16.71875 11.46875 
Q 22.21875 10.203125 27.875 10.203125 
Q 33.015625 10.203125 35.59375 11.609375 
Q 38.1875 13.03125 38.1875 15.828125 
Q 38.1875 18.171875 36.40625 19.3125 
Q 34.625 20.453125 29.296875 21.09375 
L 26.21875 21.484375 
Q 14.546875 22.953125 9.859375 26.90625 
Q 5.171875 30.859375 5.171875 38.921875 
Q 5.171875 47.609375 11.125 51.796875 
Q 17.09375 56 29.390625 56 
Q 34.234375 56 39.546875 55.265625 
Q 44.875 54.546875 51.125 52.984375 
z
" id="DejaVuSans-Bold-73"/>
    </defs>
    <g transform="translate(102.174453 21.778844)scale(0.13 -0.13)">
     <use xlink:href="#DejaVuSans-Bold-52"/>
     <use x="77.001953" xlink:href="#DejaVuSans-Bold-4f"/>
     <use x="162.011719" xlink:href="#DejaVuSans-Bold-43"/>
     <use x="235.400391" xlink:href="#DejaVuSans-Bold-20"/>
     <use x="270.214844" xlink:href="#DejaVuSans-Bold-63"/>
     <use x="329.492188" xlink:href="#DejaVuSans-Bold-75"/>
     <use x="400.683594" xlink:href="#DejaVuSans-Bold-72"/>
     <use x="450" xlink:href="#DejaVuSans-Bold-76"/>
     <use x="515.185547" xlink:href="#DejaVuSans-Bold-65"/>
     <use x="583.007812" xlink:href="#DejaVuSans-Bold-20"/>
     <use x="617.822266" xlink:href="#DejaVuSans-Bold-6f"/>
     <use x="686.523438" xlink:href="#DejaVuSans-Bold-66"/>
     <use x="730.029297" xlink:href="#DejaVuSans-Bold-20"/>
     <use x="764.84375" xlink:href="#DejaVuSans-Bold-74"/>
     <use x="812.646484" xlink:href="#DejaVuSans-Bold-68"/>
     <use x="883.837891" xlink:href="#DejaVuSans-Bold-65"/>
     <use x="951.660156" xlink:href="#DejaVuSans-Bold-20"/>
     <use x="986.474609" xlink:href="#DejaVuSans-Bold-63"/>
     <use x="1045.751953" xlink:href="#DejaVuSans-Bold-6c"/>
     <use x="1080.029297" xlink:href="#DejaVuSans-Bold-61"/>
     <use x="1147.509766" xlink:href="#DejaVuSans-Bold-73"/>
     <use x="1207.03125" xlink:href="#DejaVuSans-Bold-73"/>
    </g>
    <!--  -->
    <g transform="translate(184.5 36.336)scale(0.13 -0.13)"/>
   </g>
   <g id="legend_1">
    <g id="patch_7">
     <path d="M 108.96 309.992 
L 318.4 309.992 
Q 320 309.992 320 308.392 
L 320 250.462 
Q 320 248.862 318.4 248.862 
L 108.96 248.862 
Q 107.36 248.862 107.36 250.462 
L 107.36 308.392 
Q 107.36 309.992 108.96 309.992 
z
" style="fill:#ffffff;opacity:0.8;stroke:#cccccc;stroke-linejoin:miter;"/>
    </g>
    <g id="line2d_18">
     <path d="M 110.56 255.342 
L 126.56 255.342 
" style="fill:none;stroke:#f8766e;stroke-linecap:square;stroke-opacity:0.8;stroke-width:1.8;"/>
    </g>
    <g id="line2d_19"/>
    <g id="text_16">
     <!-- Class Healthy Mean ROC (AUC = 0.80 $\pm$ 0.02) -->
     <defs>
      <path d="M 64.40625 67.28125 
L 64.40625 56.890625 
Q 59.421875 61.53125 53.78125 63.8125 
Q 48.140625 66.109375 41.796875 66.109375 
Q 29.296875 66.109375 22.65625 58.46875 
Q 16.015625 50.828125 16.015625 36.375 
Q 16.015625 21.96875 22.65625 14.328125 
Q 29.296875 6.6875 41.796875 6.6875 
Q 48.140625 6.6875 53.78125 8.984375 
Q 59.421875 11.28125 64.40625 15.921875 
L 64.40625 5.609375 
Q 59.234375 2.09375 53.4375 0.328125 
Q 47.65625 -1.421875 41.21875 -1.421875 
Q 24.65625 -1.421875 15.125 8.703125 
Q 5.609375 18.84375 5.609375 36.375 
Q 5.609375 53.953125 15.125 64.078125 
Q 24.65625 74.21875 41.21875 74.21875 
Q 47.75 74.21875 53.53125 72.484375 
Q 59.328125 70.75 64.40625 67.28125 
z
" id="DejaVuSans-43"/>
      <path d="M 9.8125 72.90625 
L 19.671875 72.90625 
L 19.671875 43.015625 
L 55.515625 43.015625 
L 55.515625 72.90625 
L 65.375 72.90625 
L 65.375 0 
L 55.515625 0 
L 55.515625 34.71875 
L 19.671875 34.71875 
L 19.671875 0 
L 9.8125 0 
z
" id="DejaVuSans-48"/>
      <path d="M 54.890625 33.015625 
L 54.890625 0 
L 45.90625 0 
L 45.90625 32.71875 
Q 45.90625 40.484375 42.875 44.328125 
Q 39.84375 48.1875 33.796875 48.1875 
Q 26.515625 48.1875 22.3125 43.546875 
Q 18.109375 38.921875 18.109375 30.90625 
L 18.109375 0 
L 9.078125 0 
L 9.078125 75.984375 
L 18.109375 75.984375 
L 18.109375 46.1875 
Q 21.34375 51.125 25.703125 53.5625 
Q 30.078125 56 35.796875 56 
Q 45.21875 56 50.046875 50.171875 
Q 54.890625 44.34375 54.890625 33.015625 
z
" id="DejaVuSans-68"/>
      <path d="M 32.171875 -5.078125 
Q 28.375 -14.84375 24.75 -17.8125 
Q 21.140625 -20.796875 15.09375 -20.796875 
L 7.90625 -20.796875 
L 7.90625 -13.28125 
L 13.1875 -13.28125 
Q 16.890625 -13.28125 18.9375 -11.515625 
Q 21 -9.765625 23.484375 -3.21875 
L 25.09375 0.875 
L 2.984375 54.6875 
L 12.5 54.6875 
L 29.59375 11.921875 
L 46.6875 54.6875 
L 56.203125 54.6875 
z
" id="DejaVuSans-79"/>
      <path d="M 9.8125 72.90625 
L 24.515625 72.90625 
L 43.109375 23.296875 
L 61.8125 72.90625 
L 76.515625 72.90625 
L 76.515625 0 
L 66.890625 0 
L 66.890625 64.015625 
L 48.09375 14.015625 
L 38.1875 14.015625 
L 19.390625 64.015625 
L 19.390625 0 
L 9.8125 0 
z
" id="DejaVuSans-4d"/>
      <path d="M 54.890625 33.015625 
L 54.890625 0 
L 45.90625 0 
L 45.90625 32.71875 
Q 45.90625 40.484375 42.875 44.328125 
Q 39.84375 48.1875 33.796875 48.1875 
Q 26.515625 48.1875 22.3125 43.546875 
Q 18.109375 38.921875 18.109375 30.90625 
L 18.109375 0 
L 9.078125 0 
L 9.078125 54.6875 
L 18.109375 54.6875 
L 18.109375 46.1875 
Q 21.34375 51.125 25.703125 53.5625 
Q 30.078125 56 35.796875 56 
Q 45.21875 56 50.046875 50.171875 
Q 54.890625 44.34375 54.890625 33.015625 
z
" id="DejaVuSans-6e"/>
      <path d="M 44.390625 34.1875 
Q 47.5625 33.109375 50.5625 29.59375 
Q 53.5625 26.078125 56.59375 19.921875 
L 66.609375 0 
L 56 0 
L 46.6875 18.703125 
Q 43.0625 26.03125 39.671875 28.421875 
Q 36.28125 30.8125 30.421875 30.8125 
L 19.671875 30.8125 
L 19.671875 0 
L 9.8125 0 
L 9.8125 72.90625 
L 32.078125 72.90625 
Q 44.578125 72.90625 50.734375 67.671875 
Q 56.890625 62.453125 56.890625 51.90625 
Q 56.890625 45.015625 53.6875 40.46875 
Q 50.484375 35.9375 44.390625 34.1875 
z
M 19.671875 64.796875 
L 19.671875 38.921875 
L 32.078125 38.921875 
Q 39.203125 38.921875 42.84375 42.21875 
Q 46.484375 45.515625 46.484375 51.90625 
Q 46.484375 58.296875 42.84375 61.546875 
Q 39.203125 64.796875 32.078125 64.796875 
z
" id="DejaVuSans-52"/>
      <path d="M 39.40625 66.21875 
Q 28.65625 66.21875 22.328125 58.203125 
Q 16.015625 50.203125 16.015625 36.375 
Q 16.015625 22.609375 22.328125 14.59375 
Q 28.65625 6.59375 39.40625 6.59375 
Q 50.140625 6.59375 56.421875 14.59375 
Q 62.703125 22.609375 62.703125 36.375 
Q 62.703125 50.203125 56.421875 58.203125 
Q 50.140625 66.21875 39.40625 66.21875 
z
M 39.40625 74.21875 
Q 54.734375 74.21875 63.90625 63.9375 
Q 73.09375 53.65625 73.09375 36.375 
Q 73.09375 19.140625 63.90625 8.859375 
Q 54.734375 -1.421875 39.40625 -1.421875 
Q 24.03125 -1.421875 14.8125 8.828125 
Q 5.609375 19.09375 5.609375 36.375 
Q 5.609375 53.65625 14.8125 63.9375 
Q 24.03125 74.21875 39.40625 74.21875 
z
" id="DejaVuSans-4f"/>
      <path d="M 31 75.875 
Q 24.46875 64.65625 21.28125 53.65625 
Q 18.109375 42.671875 18.109375 31.390625 
Q 18.109375 20.125 21.3125 9.0625 
Q 24.515625 -2 31 -13.1875 
L 23.1875 -13.1875 
Q 15.875 -1.703125 12.234375 9.375 
Q 8.59375 20.453125 8.59375 31.390625 
Q 8.59375 42.28125 12.203125 53.3125 
Q 15.828125 64.359375 23.1875 75.875 
z
" id="DejaVuSans-28"/>
      <path d="M 34.1875 63.1875 
L 20.796875 26.90625 
L 47.609375 26.90625 
z
M 28.609375 72.90625 
L 39.796875 72.90625 
L 67.578125 0 
L 57.328125 0 
L 50.6875 18.703125 
L 17.828125 18.703125 
L 11.1875 0 
L 0.78125 0 
z
" id="DejaVuSans-41"/>
      <path d="M 8.6875 72.90625 
L 18.609375 72.90625 
L 18.609375 28.609375 
Q 18.609375 16.890625 22.84375 11.734375 
Q 27.09375 6.59375 36.625 6.59375 
Q 46.09375 6.59375 50.34375 11.734375 
Q 54.59375 16.890625 54.59375 28.609375 
L 54.59375 72.90625 
L 64.5 72.90625 
L 64.5 27.390625 
Q 64.5 13.140625 57.4375 5.859375 
Q 50.390625 -1.421875 36.625 -1.421875 
Q 22.796875 -1.421875 15.734375 5.859375 
Q 8.6875 13.140625 8.6875 27.390625 
z
" id="DejaVuSans-55"/>
      <path d="M 10.59375 45.40625 
L 73.1875 45.40625 
L 73.1875 37.203125 
L 10.59375 37.203125 
z
M 10.59375 25.484375 
L 73.1875 25.484375 
L 73.1875 17.1875 
L 10.59375 17.1875 
z
" id="DejaVuSans-3d"/>
      <path d="M 46 62.703125 
L 46 43.796875 
L 73.1875 43.796875 
L 73.1875 35.5 
L 46 35.5 
L 46 16.609375 
L 37.796875 16.609375 
L 37.796875 35.5 
L 10.59375 35.5 
L 10.59375 43.796875 
L 37.796875 43.796875 
L 37.796875 62.703125 
z
M 10.59375 8.296875 
L 73.1875 8.296875 
L 73.1875 0 
L 10.59375 0 
z
" id="DejaVuSans-b1"/>
      <path d="M 8.015625 75.875 
L 15.828125 75.875 
Q 23.140625 64.359375 26.78125 53.3125 
Q 30.421875 42.28125 30.421875 31.390625 
Q 30.421875 20.453125 26.78125 9.375 
Q 23.140625 -1.703125 15.828125 -13.1875 
L 8.015625 -13.1875 
Q 14.5 -2 17.703125 9.0625 
Q 20.90625 20.125 20.90625 31.390625 
Q 20.90625 42.671875 17.703125 53.65625 
Q 14.5 64.65625 8.015625 75.875 
z
" id="DejaVuSans-29"/>
     </defs>
     <g transform="translate(132.96 258.142)scale(0.08 -0.08)">
      <use transform="translate(0 0.015625)" xlink:href="#DejaVuSans-43"/>
      <use transform="translate(69.824219 0.015625)" xlink:href="#DejaVuSans-6c"/>
      <use transform="translate(97.607422 0.015625)" xlink:href="#DejaVuSans-61"/>
      <use transform="translate(158.886719 0.015625)" xlink:href="#DejaVuSans-73"/>
      <use transform="translate(210.986328 0.015625)" xlink:href="#DejaVuSans-73"/>
      <use transform="translate(263.085938 0.015625)" xlink:href="#DejaVuSans-20"/>
      <use transform="translate(294.873047 0.015625)" xlink:href="#DejaVuSans-48"/>
      <use transform="translate(370.068359 0.015625)" xlink:href="#DejaVuSans-65"/>
      <use transform="translate(431.591797 0.015625)" xlink:href="#DejaVuSans-61"/>
      <use transform="translate(492.871094 0.015625)" xlink:href="#DejaVuSans-6c"/>
      <use transform="translate(520.654297 0.015625)" xlink:href="#DejaVuSans-74"/>
      <use transform="translate(559.863281 0.015625)" xlink:href="#DejaVuSans-68"/>
      <use transform="translate(623.242188 0.015625)" xlink:href="#DejaVuSans-79"/>
      <use transform="translate(682.421875 0.015625)" xlink:href="#DejaVuSans-20"/>
      <use transform="translate(714.208984 0.015625)" xlink:href="#DejaVuSans-4d"/>
      <use transform="translate(800.488281 0.015625)" xlink:href="#DejaVuSans-65"/>
      <use transform="translate(862.011719 0.015625)" xlink:href="#DejaVuSans-61"/>
      <use transform="translate(923.291016 0.015625)" xlink:href="#DejaVuSans-6e"/>
      <use transform="translate(986.669922 0.015625)" xlink:href="#DejaVuSans-20"/>
      <use transform="translate(1018.457031 0.015625)" xlink:href="#DejaVuSans-52"/>
      <use transform="translate(1087.939453 0.015625)" xlink:href="#DejaVuSans-4f"/>
      <use transform="translate(1166.650391 0.015625)" xlink:href="#DejaVuSans-43"/>
      <use transform="translate(1236.474609 0.015625)" xlink:href="#DejaVuSans-20"/>
      <use transform="translate(1268.261719 0.015625)" xlink:href="#DejaVuSans-28"/>
      <use transform="translate(1307.275391 0.015625)" xlink:href="#DejaVuSans-41"/>
      <use transform="translate(1375.683594 0.015625)" xlink:href="#DejaVuSans-55"/>
      <use transform="translate(1448.876953 0.015625)" xlink:href="#DejaVuSans-43"/>
      <use transform="translate(1518.701172 0.015625)" xlink:href="#DejaVuSans-20"/>
      <use transform="translate(1550.488281 0.015625)" xlink:href="#DejaVuSans-3d"/>
      <use transform="translate(1634.277344 0.015625)" xlink:href="#DejaVuSans-20"/>
      <use transform="translate(1666.064453 0.015625)" xlink:href="#DejaVuSans-30"/>
      <use transform="translate(1729.6875 0.015625)" xlink:href="#DejaVuSans-2e"/>
      <use transform="translate(1761.443359 0.015625)" xlink:href="#DejaVuSans-38"/>
      <use transform="translate(1825.066406 0.015625)" xlink:href="#DejaVuSans-30"/>
      <use transform="translate(1888.689453 0.015625)" xlink:href="#DejaVuSans-20"/>
      <use transform="translate(1920.476562 0.015625)" xlink:href="#DejaVuSans-b1"/>
      <use transform="translate(2004.265625 0.015625)" xlink:href="#DejaVuSans-20"/>
      <use transform="translate(2036.052734 0.015625)" xlink:href="#DejaVuSans-30"/>
      <use transform="translate(2099.675781 0.015625)" xlink:href="#DejaVuSans-2e"/>
      <use transform="translate(2131.462891 0.015625)" xlink:href="#DejaVuSans-30"/>
      <use transform="translate(2195.085938 0.015625)" xlink:href="#DejaVuSans-32"/>
      <use transform="translate(2258.708984 0.015625)" xlink:href="#DejaVuSans-29"/>
     </g>
    </g>
    <g id="line2d_20">
     <path d="M 110.56 267.10075 
L 126.56 267.10075 
" style="fill:none;stroke:#7cad00;stroke-linecap:square;stroke-opacity:0.8;stroke-width:1.8;"/>
    </g>
    <g id="line2d_21"/>
    <g id="text_17">
     <!-- Class HBVI Mean ROC (AUC = 0.67 $\pm$ 0.14) -->
     <defs>
      <path d="M 19.671875 34.8125 
L 19.671875 8.109375 
L 35.5 8.109375 
Q 43.453125 8.109375 47.28125 11.40625 
Q 51.125 14.703125 51.125 21.484375 
Q 51.125 28.328125 47.28125 31.5625 
Q 43.453125 34.8125 35.5 34.8125 
z
M 19.671875 64.796875 
L 19.671875 42.828125 
L 34.28125 42.828125 
Q 41.5 42.828125 45.03125 45.53125 
Q 48.578125 48.25 48.578125 53.8125 
Q 48.578125 59.328125 45.03125 62.0625 
Q 41.5 64.796875 34.28125 64.796875 
z
M 9.8125 72.90625 
L 35.015625 72.90625 
Q 46.296875 72.90625 52.390625 68.21875 
Q 58.5 63.53125 58.5 54.890625 
Q 58.5 48.1875 55.375 44.234375 
Q 52.25 40.28125 46.1875 39.3125 
Q 53.46875 37.75 57.5 32.78125 
Q 61.53125 27.828125 61.53125 20.40625 
Q 61.53125 10.640625 54.890625 5.3125 
Q 48.25 0 35.984375 0 
L 9.8125 0 
z
" id="DejaVuSans-42"/>
      <path d="M 28.609375 0 
L 0.78125 72.90625 
L 11.078125 72.90625 
L 34.1875 11.53125 
L 57.328125 72.90625 
L 67.578125 72.90625 
L 39.796875 0 
z
" id="DejaVuSans-56"/>
      <path d="M 9.8125 72.90625 
L 19.671875 72.90625 
L 19.671875 0 
L 9.8125 0 
z
" id="DejaVuSans-49"/>
      <path d="M 8.203125 72.90625 
L 55.078125 72.90625 
L 55.078125 68.703125 
L 28.609375 0 
L 18.3125 0 
L 43.21875 64.59375 
L 8.203125 64.59375 
z
" id="DejaVuSans-37"/>
     </defs>
     <g transform="translate(132.96 269.90075)scale(0.08 -0.08)">
      <use transform="translate(0 0.015625)" xlink:href="#DejaVuSans-43"/>
      <use transform="translate(69.824219 0.015625)" xlink:href="#DejaVuSans-6c"/>
      <use transform="translate(97.607422 0.015625)" xlink:href="#DejaVuSans-61"/>
      <use transform="translate(158.886719 0.015625)" xlink:href="#DejaVuSans-73"/>
      <use transform="translate(210.986328 0.015625)" xlink:href="#DejaVuSans-73"/>
      <use transform="translate(263.085938 0.015625)" xlink:href="#DejaVuSans-20"/>
      <use transform="translate(294.873047 0.015625)" xlink:href="#DejaVuSans-48"/>
      <use transform="translate(370.068359 0.015625)" xlink:href="#DejaVuSans-42"/>
      <use transform="translate(438.671875 0.015625)" xlink:href="#DejaVuSans-56"/>
      <use transform="translate(507.080078 0.015625)" xlink:href="#DejaVuSans-49"/>
      <use transform="translate(536.572266 0.015625)" xlink:href="#DejaVuSans-20"/>
      <use transform="translate(568.359375 0.015625)" xlink:href="#DejaVuSans-4d"/>
      <use transform="translate(654.638672 0.015625)" xlink:href="#DejaVuSans-65"/>
      <use transform="translate(716.162109 0.015625)" xlink:href="#DejaVuSans-61"/>
      <use transform="translate(777.441406 0.015625)" xlink:href="#DejaVuSans-6e"/>
      <use transform="translate(840.820312 0.015625)" xlink:href="#DejaVuSans-20"/>
      <use transform="translate(872.607422 0.015625)" xlink:href="#DejaVuSans-52"/>
      <use transform="translate(942.089844 0.015625)" xlink:href="#DejaVuSans-4f"/>
      <use transform="translate(1020.800781 0.015625)" xlink:href="#DejaVuSans-43"/>
      <use transform="translate(1090.625 0.015625)" xlink:href="#DejaVuSans-20"/>
      <use transform="translate(1122.412109 0.015625)" xlink:href="#DejaVuSans-28"/>
      <use transform="translate(1161.425781 0.015625)" xlink:href="#DejaVuSans-41"/>
      <use transform="translate(1229.833984 0.015625)" xlink:href="#DejaVuSans-55"/>
      <use transform="translate(1303.027344 0.015625)" xlink:href="#DejaVuSans-43"/>
      <use transform="translate(1372.851562 0.015625)" xlink:href="#DejaVuSans-20"/>
      <use transform="translate(1404.638672 0.015625)" xlink:href="#DejaVuSans-3d"/>
      <use transform="translate(1488.427734 0.015625)" xlink:href="#DejaVuSans-20"/>
      <use transform="translate(1520.214844 0.015625)" xlink:href="#DejaVuSans-30"/>
      <use transform="translate(1583.837891 0.015625)" xlink:href="#DejaVuSans-2e"/>
      <use transform="translate(1615.625 0.015625)" xlink:href="#DejaVuSans-36"/>
      <use transform="translate(1679.248047 0.015625)" xlink:href="#DejaVuSans-37"/>
      <use transform="translate(1742.871094 0.015625)" xlink:href="#DejaVuSans-20"/>
      <use transform="translate(1774.658203 0.015625)" xlink:href="#DejaVuSans-b1"/>
      <use transform="translate(1858.447266 0.015625)" xlink:href="#DejaVuSans-20"/>
      <use transform="translate(1890.234375 0.015625)" xlink:href="#DejaVuSans-30"/>
      <use transform="translate(1953.857422 0.015625)" xlink:href="#DejaVuSans-2e"/>
      <use transform="translate(1985.644531 0.015625)" xlink:href="#DejaVuSans-31"/>
      <use transform="translate(2049.267578 0.015625)" xlink:href="#DejaVuSans-34"/>
      <use transform="translate(2112.890625 0.015625)" xlink:href="#DejaVuSans-29"/>
     </g>
    </g>
    <g id="line2d_22">
     <path d="M 110.56 278.84325 
L 126.56 278.84325 
" style="fill:none;stroke:#00bec3;stroke-linecap:square;stroke-opacity:0.8;stroke-width:1.8;"/>
    </g>
    <g id="line2d_23"/>
    <g id="text_18">
     <!-- Class CHB Mean ROC (AUC = 0.66 $\pm$ 0.08) -->
     <g transform="translate(132.96 281.64325)scale(0.08 -0.08)">
      <use transform="translate(0 0.015625)" xlink:href="#DejaVuSans-43"/>
      <use transform="translate(69.824219 0.015625)" xlink:href="#DejaVuSans-6c"/>
      <use transform="translate(97.607422 0.015625)" xlink:href="#DejaVuSans-61"/>
      <use transform="translate(158.886719 0.015625)" xlink:href="#DejaVuSans-73"/>
      <use transform="translate(210.986328 0.015625)" xlink:href="#DejaVuSans-73"/>
      <use transform="translate(263.085938 0.015625)" xlink:href="#DejaVuSans-20"/>
      <use transform="translate(294.873047 0.015625)" xlink:href="#DejaVuSans-43"/>
      <use transform="translate(364.697266 0.015625)" xlink:href="#DejaVuSans-48"/>
      <use transform="translate(439.892578 0.015625)" xlink:href="#DejaVuSans-42"/>
      <use transform="translate(508.496094 0.015625)" xlink:href="#DejaVuSans-20"/>
      <use transform="translate(540.283203 0.015625)" xlink:href="#DejaVuSans-4d"/>
      <use transform="translate(626.5625 0.015625)" xlink:href="#DejaVuSans-65"/>
      <use transform="translate(688.085938 0.015625)" xlink:href="#DejaVuSans-61"/>
      <use transform="translate(749.365234 0.015625)" xlink:href="#DejaVuSans-6e"/>
      <use transform="translate(812.744141 0.015625)" xlink:href="#DejaVuSans-20"/>
      <use transform="translate(844.53125 0.015625)" xlink:href="#DejaVuSans-52"/>
      <use transform="translate(914.013672 0.015625)" xlink:href="#DejaVuSans-4f"/>
      <use transform="translate(992.724609 0.015625)" xlink:href="#DejaVuSans-43"/>
      <use transform="translate(1062.548828 0.015625)" xlink:href="#DejaVuSans-20"/>
      <use transform="translate(1094.335938 0.015625)" xlink:href="#DejaVuSans-28"/>
      <use transform="translate(1133.349609 0.015625)" xlink:href="#DejaVuSans-41"/>
      <use transform="translate(1201.757812 0.015625)" xlink:href="#DejaVuSans-55"/>
      <use transform="translate(1274.951172 0.015625)" xlink:href="#DejaVuSans-43"/>
      <use transform="translate(1344.775391 0.015625)" xlink:href="#DejaVuSans-20"/>
      <use transform="translate(1376.5625 0.015625)" xlink:href="#DejaVuSans-3d"/>
      <use transform="translate(1460.351562 0.015625)" xlink:href="#DejaVuSans-20"/>
      <use transform="translate(1492.138672 0.015625)" xlink:href="#DejaVuSans-30"/>
      <use transform="translate(1555.761719 0.015625)" xlink:href="#DejaVuSans-2e"/>
      <use transform="translate(1587.548828 0.015625)" xlink:href="#DejaVuSans-36"/>
      <use transform="translate(1651.171875 0.015625)" xlink:href="#DejaVuSans-36"/>
      <use transform="translate(1714.794922 0.015625)" xlink:href="#DejaVuSans-20"/>
      <use transform="translate(1746.582031 0.015625)" xlink:href="#DejaVuSans-b1"/>
      <use transform="translate(1830.371094 0.015625)" xlink:href="#DejaVuSans-20"/>
      <use transform="translate(1862.158203 0.015625)" xlink:href="#DejaVuSans-30"/>
      <use transform="translate(1925.78125 0.015625)" xlink:href="#DejaVuSans-2e"/>
      <use transform="translate(1957.568359 0.015625)" xlink:href="#DejaVuSans-30"/>
      <use transform="translate(2021.191406 0.015625)" xlink:href="#DejaVuSans-38"/>
      <use transform="translate(2084.814453 0.015625)" xlink:href="#DejaVuSans-29"/>
     </g>
    </g>
    <g id="line2d_24">
     <path d="M 110.56 290.58575 
L 126.56 290.58575 
" style="fill:none;stroke:#c67cff;stroke-linecap:square;stroke-opacity:0.8;stroke-width:1.8;"/>
    </g>
    <g id="line2d_25"/>
    <g id="text_19">
     <!-- Class LC Mean ROC (AUC = 0.87 $\pm$ 0.02) -->
     <defs>
      <path d="M 9.8125 72.90625 
L 19.671875 72.90625 
L 19.671875 8.296875 
L 55.171875 8.296875 
L 55.171875 0 
L 9.8125 0 
z
" id="DejaVuSans-4c"/>
     </defs>
     <g transform="translate(132.96 293.38575)scale(0.08 -0.08)">
      <use transform="translate(0 0.015625)" xlink:href="#DejaVuSans-43"/>
      <use transform="translate(69.824219 0.015625)" xlink:href="#DejaVuSans-6c"/>
      <use transform="translate(97.607422 0.015625)" xlink:href="#DejaVuSans-61"/>
      <use transform="translate(158.886719 0.015625)" xlink:href="#DejaVuSans-73"/>
      <use transform="translate(210.986328 0.015625)" xlink:href="#DejaVuSans-73"/>
      <use transform="translate(263.085938 0.015625)" xlink:href="#DejaVuSans-20"/>
      <use transform="translate(294.873047 0.015625)" xlink:href="#DejaVuSans-4c"/>
      <use transform="translate(350.585938 0.015625)" xlink:href="#DejaVuSans-43"/>
      <use transform="translate(420.410156 0.015625)" xlink:href="#DejaVuSans-20"/>
      <use transform="translate(452.197266 0.015625)" xlink:href="#DejaVuSans-4d"/>
      <use transform="translate(538.476562 0.015625)" xlink:href="#DejaVuSans-65"/>
      <use transform="translate(600 0.015625)" xlink:href="#DejaVuSans-61"/>
      <use transform="translate(661.279297 0.015625)" xlink:href="#DejaVuSans-6e"/>
      <use transform="translate(724.658203 0.015625)" xlink:href="#DejaVuSans-20"/>
      <use transform="translate(756.445312 0.015625)" xlink:href="#DejaVuSans-52"/>
      <use transform="translate(825.927734 0.015625)" xlink:href="#DejaVuSans-4f"/>
      <use transform="translate(904.638672 0.015625)" xlink:href="#DejaVuSans-43"/>
      <use transform="translate(974.462891 0.015625)" xlink:href="#DejaVuSans-20"/>
      <use transform="translate(1006.25 0.015625)" xlink:href="#DejaVuSans-28"/>
      <use transform="translate(1045.263672 0.015625)" xlink:href="#DejaVuSans-41"/>
      <use transform="translate(1113.671875 0.015625)" xlink:href="#DejaVuSans-55"/>
      <use transform="translate(1186.865234 0.015625)" xlink:href="#DejaVuSans-43"/>
      <use transform="translate(1256.689453 0.015625)" xlink:href="#DejaVuSans-20"/>
      <use transform="translate(1288.476562 0.015625)" xlink:href="#DejaVuSans-3d"/>
      <use transform="translate(1372.265625 0.015625)" xlink:href="#DejaVuSans-20"/>
      <use transform="translate(1404.052734 0.015625)" xlink:href="#DejaVuSans-30"/>
      <use transform="translate(1467.675781 0.015625)" xlink:href="#DejaVuSans-2e"/>
      <use transform="translate(1499.431641 0.015625)" xlink:href="#DejaVuSans-38"/>
      <use transform="translate(1563.054688 0.015625)" xlink:href="#DejaVuSans-37"/>
      <use transform="translate(1626.677734 0.015625)" xlink:href="#DejaVuSans-20"/>
      <use transform="translate(1658.464844 0.015625)" xlink:href="#DejaVuSans-b1"/>
      <use transform="translate(1742.253906 0.015625)" xlink:href="#DejaVuSans-20"/>
      <use transform="translate(1774.041016 0.015625)" xlink:href="#DejaVuSans-30"/>
      <use transform="translate(1837.664062 0.015625)" xlink:href="#DejaVuSans-2e"/>
      <use transform="translate(1869.451172 0.015625)" xlink:href="#DejaVuSans-30"/>
      <use transform="translate(1933.074219 0.015625)" xlink:href="#DejaVuSans-32"/>
      <use transform="translate(1996.697266 0.015625)" xlink:href="#DejaVuSans-29"/>
     </g>
    </g>
    <g id="line2d_26">
     <path d="M 110.56 302.32825 
L 126.56 302.32825 
" style="fill:none;stroke:#000000;stroke-dasharray:7.4,3.2;stroke-dashoffset:0;stroke-opacity:0.6;stroke-width:2;"/>
    </g>
    <g id="line2d_27"/>
    <g id="text_20">
     <!-- Luck -->
     <defs>
      <path d="M 48.78125 52.59375 
L 48.78125 44.1875 
Q 44.96875 46.296875 41.140625 47.34375 
Q 37.3125 48.390625 33.40625 48.390625 
Q 24.65625 48.390625 19.8125 42.84375 
Q 14.984375 37.3125 14.984375 27.296875 
Q 14.984375 17.28125 19.8125 11.734375 
Q 24.65625 6.203125 33.40625 6.203125 
Q 37.3125 6.203125 41.140625 7.25 
Q 44.96875 8.296875 48.78125 10.40625 
L 48.78125 2.09375 
Q 45.015625 0.34375 40.984375 -0.53125 
Q 36.96875 -1.421875 32.421875 -1.421875 
Q 20.0625 -1.421875 12.78125 6.34375 
Q 5.515625 14.109375 5.515625 27.296875 
Q 5.515625 40.671875 12.859375 48.328125 
Q 20.21875 56 33.015625 56 
Q 37.15625 56 41.109375 55.140625 
Q 45.0625 54.296875 48.78125 52.59375 
z
" id="DejaVuSans-63"/>
      <path d="M 9.078125 75.984375 
L 18.109375 75.984375 
L 18.109375 31.109375 
L 44.921875 54.6875 
L 56.390625 54.6875 
L 27.390625 29.109375 
L 57.625 0 
L 45.90625 0 
L 18.109375 26.703125 
L 18.109375 0 
L 9.078125 0 
z
" id="DejaVuSans-6b"/>
     </defs>
     <g transform="translate(132.96 305.12825)scale(0.08 -0.08)">
      <use xlink:href="#DejaVuSans-4c"/>
      <use x="55.697266" xlink:href="#DejaVuSans-75"/>
      <use x="119.076172" xlink:href="#DejaVuSans-63"/>
      <use x="174.056641" xlink:href="#DejaVuSans-6b"/>
     </g>
    </g>
   </g>
  </g>
 </g>
 <defs>
  <clipPath id="p95830d0cd0">
   <rect height="271.656" width="279" x="45" y="42.336"/>
  </clipPath>
 </defs>
</svg>
